<?xml version="1.0" encoding="UTF-8" standalone="no"?>
<!-- Created with Inkscape (http://www.inkscape.org/) -->
<svg
   xmlns:dc="http://purl.org/dc/elements/1.1/"
   xmlns:cc="http://creativecommons.org/ns#"
   xmlns:rdf="http://www.w3.org/1999/02/22-rdf-syntax-ns#"
   xmlns:svg="http://www.w3.org/2000/svg"
   xmlns="http://www.w3.org/2000/svg"
   xmlns:sodipodi="http://sodipodi.sourceforge.net/DTD/sodipodi-0.dtd"
   xmlns:inkscape="http://www.inkscape.org/namespaces/inkscape"
   width="150px"
   height="150px"
   viewBox="0 0 755 755" 
preserveAspectRatio="xMinYMin meet"

   id="svg2"
   sodipodi:version="0.32"
   inkscape:version="0.46"
   version="1.0"
   sodipodi:docname="fork3.svg"
   inkscape:output_extension="org.inkscape.output.svg.inkscape">
  <defs
     id="defs4">
    <inkscape:perspective
       sodipodi:type="inkscape:persp3d"
       inkscape:vp_x="0 : 526.18109 : 1"
       inkscape:vp_y="0 : 1000 : 0"
       inkscape:vp_z="744.09448 : 526.18109 : 1"
       inkscape:persp3d-origin="372.04724 : 350.78739 : 1"
       id="perspective10" />
  </defs>
  <sodipodi:namedview
     id="base"
     pagecolor="#ffffff"
     bordercolor="#666666"
     borderopacity="1.0"
     gridtolerance="10000"
     guidetolerance="10"
     objecttolerance="10"
     inkscape:pageopacity="0.0"
     inkscape:pageshadow="2"
     inkscape:zoom="1.4"
     inkscape:cx="525.2241"
     inkscape:cy="398.42571"
     inkscape:document-units="px"
     inkscape:current-layer="layer1"
     showgrid="false"
     inkscape:window-width="1680"
     inkscape:window-height="979"
     inkscape:window-x="0"
     inkscape:window-y="25" />
  <metadata
     id="metadata7">
    <rdf:RDF>
      <cc:Work
         rdf:about="">
        <dc:format>image/svg+xml</dc:format>
        <dc:type
           rdf:resource="http://purl.org/dc/dcmitype/StillImage" />
      </cc:Work>
    </rdf:RDF>
  </metadata>
  <g
     inkscape:label="Layer 1"
     inkscape:groupmode="layer"
     id="layer1">
    <path
       style="opacity:0.98999999;fill:#d40000;fill-opacity:1;stroke:none;stroke-width:1;stroke-linecap:butt;stroke-linejoin:round;stroke-miterlimit:4;stroke-dasharray:none;stroke-opacity:1"
       id="path2451"
       d="M 222.68438,398.09231 C 207.51725,402.59933 193.37865,409.91909 178.36345,414.88165 C 173.02647,416.64552 167.58057,418.06089 162.18912,419.6505 C 130.16982,427.7911 97.105793,429.7692 64.233339,431.15968 C 58.493103,431.24131 54.261485,431.44957 48.677466,431.05798 C 47.383506,430.96724 42.86033,430.66817 41.443458,429.44514 C 39.512187,427.77811 39.732773,425.90952 39.494832,423.6892 C 39.878412,422.36454 40.115825,420.98849 40.645591,419.71524 C 42.132489,416.14153 44.72811,412.24343 46.934759,409.1577 C 50.081488,404.75739 53.766398,400.18141 57.478275,396.26448 C 59.604768,394.02049 61.904574,391.94735 64.117724,389.78882 C 71.746172,383.3149 79.774236,376.20503 88.797571,371.67422 C 122.26341,354.87035 111.57375,358.51804 127.31993,353.4305 C 128.33035,353.36199 129.39905,352.87994 130.35118,353.22497 C 134.59777,354.76382 137.23068,362.49331 138.6618,366.01458 C 140.71213,371.05931 143.37797,378.40759 145.22375,383.3987 C 153.00668,405.71496 154.56116,429.5064 154.57056,452.9731 C 154.57286,458.68533 154.32059,464.39485 154.1956,470.10571 C 153.08696,497.72128 147.05131,524.75375 140.09015,551.39477 C 136.3698,564.24662 136.47691,567.16187 106.2595,563.92977 C 101.97765,563.47178 107.6803,555.42851 108.67702,551.23915 C 111.98748,537.325 117.20352,520.24764 121.92975,507.07868 C 125.42426,497.34167 129.41365,487.78942 133.15559,478.14481 C 153.36127,429.97364 179.21079,384.36465 209.70785,341.97248 C 217.07278,331.73492 224.68928,321.66812 232.66579,311.89955 C 240.06218,302.84145 248.08855,294.31656 255.79992,285.52505 C 273.92839,266.59848 293.59454,249.1766 314.62277,233.53835 C 318.67679,230.52348 322.91415,227.76333 327.05982,224.8758 L 356.47772,215.45411 C 351.73553,218.47395 346.88588,221.33125 342.2512,224.51362 C 319.51984,240.12205 298.34467,257.90338 278.90993,277.46566 C 270.90525,286.30108 262.56616,294.84469 254.8959,303.97193 C 229.51582,334.17298 206.92051,367.15034 188.04858,401.79464 C 172.71137,429.95004 169.48427,439.74504 157.49146,468.61571 C 154.25507,477.99791 150.70271,487.27702 147.78225,496.76234 C 143.5349,510.55726 140.15326,524.4437 138.44653,538.7774 C 138.0211,542.35023 140.76478,547.20145 138.05137,549.56441 C 128.99542,557.45061 116.92963,560.99598 106.36876,566.71175 C 107.23689,565.71962 108.10503,564.72745 108.97315,563.73532 C 109.95964,561.09247 111.02027,558.47616 111.93258,555.80682 C 120.04897,532.05894 124.93605,507.26744 126.13248,482.18718 C 126.21622,476.54891 126.44669,470.91093 126.38375,465.27239 C 126.12779,442.34559 123.9054,419.11481 115.54344,397.59465 C 112.63897,390.75207 111.38498,387.39635 108.05213,380.97009 C 107.11099,379.15543 106.14731,377.34415 105.01323,375.64336 C 102.77714,372.28988 102.00522,372.13408 98.455768,373.16951 C 86.512338,377.92338 91.696261,375.95886 121.43724,361.50656 C 123.30208,360.60038 117.73036,363.36949 115.9296,364.39714 C 108.6168,368.57037 101.84287,373.56936 95.515986,379.11988 C 93.327221,381.16745 91.043,383.11755 88.949681,385.26261 C 82.287351,392.08959 75.682128,400.75573 72.073022,409.6624 C 72.009753,409.86555 71.294783,411.20106 71.935929,411.58637 C 73.207036,412.35018 76.599267,412.81547 77.612272,412.93932 C 82.836242,413.578 86.066431,413.53928 91.562946,413.72492 C 123.82802,413.58119 156.22985,411.28819 187.44513,402.54423 C 192.99649,400.76184 198.60399,399.14567 204.09924,397.19711 C 220.34338,391.437 235.73935,383.48319 252.14332,378.1462 L 222.68438,398.09231 z" />
    <path
       style="opacity:0.98999999;fill:#d40000;fill-opacity:1;stroke:none;stroke-width:1;stroke-linecap:butt;stroke-linejoin:round;stroke-miterlimit:4;stroke-dasharray:none;stroke-opacity:1"
       id="path2453"
       d="M 203.17499,432.89138 C 203.37461,432.37114 194.39829,438.82488 196.28641,437.79969 C 227.35153,420.93238 219.29402,423.4409 210.82741,431.10627 C 205.1912,436.20909 205.25168,436.73946 200.64269,442.85459 C 194.08119,453.52988 190.59655,465.73049 190.52706,478.26269 C 190.51884,479.74509 190.66402,481.22438 190.7325,482.70523 C 191.09027,485.22887 191.5209,488.88958 195.14856,488.01931 C 196.49026,487.69744 200.12573,485.64523 198.92595,486.32661 C 175.66239,499.53852 175.48912,500.5656 187.15904,490.46171 C 198.28191,478.29748 207.34974,464.38365 214.44396,449.5228 C 217.95695,442.16387 219.31483,438.16521 222.09856,430.80469 C 222.82312,428.67362 223.54768,426.54255 224.27224,424.41149 C 224.78127,422.86715 225.2802,421.31945 225.79934,419.77849 C 226.12974,418.79775 227.26152,415.3499 227.91259,414.23059 C 228.39375,413.4034 229.04789,412.68976 229.61554,411.91934 L 256.8298,400.58255 C 256.16369,401.09663 255.39643,401.50124 254.83146,402.12478 C 253.81416,403.24757 252.30717,406.59401 251.80922,407.6981 C 250.64235,410.28535 247.76775,417.21892 246.87221,419.35926 C 242.38862,429.78685 237.96176,440.26256 232.47234,450.21709 C 226.68529,460.71132 219.96101,470.70538 212.48184,480.06341 C 199.26307,493.62655 204.62636,489.26521 176.02684,503.86173 C 173.18086,505.31426 169.60384,504.7195 167.31209,502.62587 C 165.15807,500.65806 165.38658,498.43563 165.06806,495.83653 C 165.08426,494.22027 165.027,492.6016 165.11666,490.98775 C 165.83399,478.07615 168.9725,465.25605 175.20454,453.88583 C 176.70602,451.6708 178.06181,449.34971 179.70896,447.24076 C 189.88283,434.21448 204.54653,428.08176 218.80421,419.63277 C 220.13255,418.84561 221.51332,418.13957 222.93385,417.53444 C 223.86703,417.1369 224.87189,416.93493 225.84091,416.63518 L 203.17499,432.89138 z"
       sodipodi:nodetypes="csscscsscsccssccsscscsscscssscc" />
    <path
       style="opacity:0.98999999;fill:#d40000;fill-opacity:1;stroke:none;stroke-width:1;stroke-linecap:butt;stroke-linejoin:round;stroke-miterlimit:4;stroke-dasharray:none;stroke-opacity:1"
       id="path2455"
       d="M 287.20924,382.16465 C 286.82371,383.10394 286.4629,384.05377 286.05263,384.98253 C 285.3436,386.58769 284.54678,388.15347 283.85204,389.76486 C 278.29361,402.65711 273.73785,415.9996 269.15433,429.25872 C 266.11341,439.06333 262.5786,448.75875 260.15279,458.74808 C 258.6079,469.68432 255.71074,465.93043 239.46291,473.39221 C 236.15476,474.03187 243.93807,468.35376 246.15525,465.81661 C 249.05084,462.50317 251.92537,459.17137 254.80108,455.84065 C 264.708,444.36616 274.48955,432.78833 284.27263,421.20835 C 286.70883,418.31559 295.43148,407.88463 298.51121,404.47146 C 299.8831,402.95102 301.06602,401.17076 302.78543,400.05837 C 311.71719,394.2799 320.74729,388.56762 330.30703,383.90088 C 331.17793,383.47574 332.3023,384.57388 332.79196,385.41023 C 333.44276,386.52179 333.21248,387.9518 333.42275,389.22259 C 332.38774,393.33081 329.95102,396.80773 327.79111,400.37584 C 327.29784,401.19069 326.73974,401.97495 326.35504,402.84632 C 325.80162,404.09983 325.44418,405.43098 324.98874,406.72331 C 322.65536,416.94069 322.5995,428.0995 328.04257,437.43815 C 329.12183,439.28985 330.61866,440.86425 331.90671,442.5773 L 307.69112,456.9162 C 306.32482,455.01747 304.76067,453.24648 303.59221,451.21999 C 297.97537,441.47863 297.43028,430.10266 298.84686,419.22162 C 299.09154,417.80243 299.2015,416.35331 299.5809,414.96405 C 300.34373,412.17081 300.87219,412.20777 302.40301,409.9677 C 304.05221,407.55442 305.52652,405.00247 306.85853,402.40315 C 308.08971,401.88512 308.27573,401.73134 307.55365,402.2005 C 314.65417,397.92095 321.7547,393.6414 328.85522,389.36185 C 330.95718,388.27666 325.16423,392.33285 323.46972,393.98346 C 319.21876,398.12427 311.31574,407.21343 307.70301,411.28119 C 297.98238,422.63446 288.33165,434.04104 278.87674,445.61762 C 276.28888,448.78619 273.70782,451.96077 271.17466,455.17324 C 269.29216,457.56058 268.03983,460.56115 265.63075,462.41577 C 256.51112,469.43645 247.54692,474.82213 237.9693,481.20388 C 235.89728,481.77482 234.09298,481.11037 233.3604,480.05954 C 232.71783,479.13783 233.2812,477.79322 233.50332,476.69181 C 233.92813,474.58535 234.64247,472.54676 235.28878,470.49738 C 238.46584,460.42336 242.2464,450.54398 245.32379,440.43654 C 247.80424,432.95592 250.35255,425.49743 252.7621,417.99368 C 254.48935,412.61472 256.01785,407.17289 257.77174,401.80256 C 258.50062,399.57075 259.37654,397.38894 260.09527,395.15338 L 287.20924,382.16465 z"
       sodipodi:nodetypes="csscccsscsssscsscsccscsscccscssscssscsscc" />
    <path
       style="opacity:0.98999999;fill:#d40000;fill-opacity:1;stroke:none;stroke-width:1;stroke-linecap:butt;stroke-linejoin:round;stroke-miterlimit:4;stroke-dasharray:none;stroke-opacity:1"
       id="path2463"
       d="M 429.25621,234.05576 C 422.70803,247.09055 418.05798,260.99922 413.18841,274.71642 C 404.2589,299.87019 407.20793,291.42029 398.54652,318.33974 C 385.43661,363.29708 373.62703,408.63025 362.8704,454.20567 C 361.98345,457.99007 361.14593,461.78639 360.20952,465.55886 C 356.84441,479.1157 355.74688,479.68389 332.08002,485.90527 C 329.65935,486.5416 330.63791,481.08074 330.38289,478.59086 C 330.09346,475.76482 330.37395,455.04993 330.38273,454.05733 C 331.03732,415.49936 331.52205,376.94062 330.69697,338.38286 C 330.40424,327.89028 330.06518,317.39377 329.36525,306.9188 C 329.26096,305.35804 329.22877,303.78718 328.99218,302.24093 C 328.91187,301.71604 327.95047,300.99781 328.42193,300.75351 C 336.89884,296.36098 345.83538,292.91889 354.5421,289.00158 C 353.92544,290.19032 353.22602,291.33965 352.69212,292.56778 C 351.63348,295.00296 349.47788,301.35591 348.69626,303.70793 C 347.5012,307.30406 345.77199,312.62987 344.83179,316.34341 C 344.34168,318.27919 343.986,320.24655 343.5631,322.19812 C 343.17803,325.62346 342.40618,328.24247 343.72745,331.57557 C 347.31779,340.63281 360.92896,342.49451 368.87464,344.37166 C 373.20095,344.83717 377.50605,345.58719 381.85357,345.76819 C 397.04698,346.40074 413.03603,344.36095 427.80739,340.89784 C 439.39199,338.18185 444.47206,336.00831 455.46094,332.0456 C 464.27669,328.70338 472.7867,324.63992 481.48184,321.01173 C 481.86516,320.85179 488.20743,318.2071 489.43444,318.09144 C 490.09832,318.02887 490.71513,318.46355 491.35547,318.6496 C 491.41678,320.18097 492.14324,321.83509 491.53939,323.24372 C 490.63236,325.35963 480.18166,334.88562 479.99389,335.06223 C 474.59467,340.14046 464.25662,349.64404 459.16032,354.55538 C 455.32287,358.25355 451.5774,362.046 447.78595,365.79132 C 438.88831,375.09761 430.0388,384.51215 422.13894,394.69862 C 419.81018,397.70144 416.56763,401.85744 415.25091,405.67674 C 414.85107,406.83651 414.90473,408.10572 414.73165,409.32021 C 415.23172,410.38527 415.47182,411.6172 416.23187,412.51539 C 419.24862,416.08047 426.27212,419.94261 429.73482,421.67249 C 434.67663,424.14131 439.70117,426.47092 444.86192,428.44151 C 465.76317,436.42245 471.5928,436.95949 494.5035,442.47212 C 539.21563,451.0078 584.69828,455.77896 630.23586,455.9712 C 640.15308,456.01307 650.0653,455.51881 659.98004,455.29261 L 643.22928,467.48288 C 633.67908,467.40983 624.12595,467.51111 614.57867,467.26374 C 568.66265,466.07408 522.85085,461.63328 477.51797,454.26427 C 453.38013,449.51846 446.85218,448.90292 424.37905,442.17998 C 418.64151,440.46357 412.97205,438.50135 407.39946,436.3078 C 402.51891,434.38664 394.93358,431.19277 391.08296,426.79923 C 389.9411,425.49638 389.53709,423.69836 388.76416,422.14793 C 388.94093,420.55774 388.78573,418.89432 389.29444,417.37737 C 390.71038,413.15517 394.83398,408.33857 397.46047,405.16805 C 406.02526,394.82923 415.41253,385.20159 424.57436,375.40309 C 428.26821,371.67845 431.93088,367.92263 435.65592,364.22918 C 459.93095,340.15996 433.57617,366.6557 454.8283,345.45751 C 456.92624,343.3649 459.00886,341.25672 461.07015,339.12799 C 462.25237,337.90709 463.07538,336.23982 464.55814,335.40934 C 465.24438,335.02498 466.09974,335.72261 466.87053,335.87925 C 455.94064,338.90436 445.88592,344.54226 435.07584,347.92558 C 423.96003,351.64989 419.48313,353.46604 407.76107,356.0231 C 392.4366,359.366 376.44034,361.2846 360.73702,360.79945 C 356.12336,360.65691 351.54057,359.99342 346.94235,359.5904 C 337.09787,357.56248 322.86273,355.99787 318.32293,345.10169 C 316.63056,341.03974 317.50652,338.69084 318.04186,334.53314 C 318.46864,332.50247 318.81216,330.45249 319.3222,328.44111 C 321.65427,319.24451 325.23261,310.37575 327.18659,301.08008 C 336.38241,296.37293 345.29472,291.06505 354.77405,286.95862 C 355.46062,286.66121 354.67415,288.45175 354.61606,289.1977 C 354.48424,290.89007 354.32191,292.5801 354.20432,294.27352 C 353.44337,305.23302 353.02593,316.21421 352.67227,327.193 C 351.67644,365.54266 351.67063,403.93285 353.3595,442.26498 C 353.66973,446.72996 353.85878,451.20501 354.29018,455.6599 C 354.59563,458.81426 355.11234,461.9448 355.56893,465.08084 C 355.72687,466.16566 356.99284,467.64008 356.13352,468.32077 C 316.99512,499.32358 346.19522,471.6369 336.40784,476.84505 C 335.36688,477.39898 339.1915,468.83618 340.58333,464.83174 C 354.27744,419.50032 366.02667,373.63038 378.31862,327.90586 C 386.07314,300.74208 394.05031,273.63899 402.10742,246.56464 L 429.25621,234.05576 z"
       sodipodi:nodetypes="csccsssccssscssscscsscsscssscsscssscsccscssscsscssssccsscscscsssccsssscccc" />
    <path
       style="opacity:0.98999999;fill:#000080;fill-opacity:1;stroke:none;stroke-width:1;stroke-linecap:butt;stroke-linejoin:round;stroke-miterlimit:4;stroke-dasharray:none;stroke-opacity:1"
       id="path2465"
       d="M 401.02788,191.33878 C 419.29797,177.24256 441.82141,168.27906 463.90817,161.88343 C 481.21916,156.8707 490.84288,153.69562 508.84654,150.27162 C 529.94651,146.95213 534.87928,146.05391 555.50179,143.26243 C 561.6189,142.43441 567.73242,141.56049 573.8732,140.93149 C 578.14889,140.49354 591.32573,138.95759 596.75094,140.94095 C 598.37411,141.53434 599.21783,143.36197 600.45125,144.57248 C 599.72901,146.78765 599.65308,149.33236 598.28451,151.218 C 594.51792,156.40774 582.62488,163.83282 578.06129,166.54584 C 565.87974,173.78772 553.58459,180.84288 541.17009,187.67772 C 534.26816,191.4776 511.98743,202.14952 505.14784,205.46189 C 505.09082,205.48913 473.52099,220.5485 471.97576,221.33263 C 468.09678,223.30099 456.49163,229.22511 460.51639,227.57523 C 466.44118,224.63145 472.61851,222.95036 478.54333,220.00658 C 478.82901,220.60925 478.54314,220.2706 479.14786,220.55189 C 481.30255,221.55411 483.7467,221.75143 486.04611,222.3512 C 516.05305,227.77199 546.74069,226.4211 576.9279,230.34279 C 585.67559,231.47922 594.45793,232.67665 602.99989,234.87862 C 610.67369,236.85679 617.93445,240.18521 625.40171,242.8385 C 631.26108,247.13164 637.95901,250.46864 642.97977,255.71792 C 659.25419,272.7331 662.96438,296.42328 658.87757,318.84085 C 655.06465,339.75624 648.41248,349.11111 638.7405,367.88301 C 633.26312,375.70193 628.23725,383.85743 622.30838,391.33978 C 599.64421,419.94239 588.08206,431.00454 558.74241,452.29114 C 556.23093,454.0477 534.27404,468.05237 528.98464,470.44027 L 508.66428,479.06638 C 511.59738,477.16291 514.53044,475.25944 517.4635,473.35597 C 521.49485,470.61462 525.5731,467.94101 529.55758,465.13196 C 556.39431,446.21228 582.43775,425.50365 603.06434,399.70523 C 608.9223,392.37846 613.85045,384.35437 619.24352,376.67894 C 628.614,358.36364 634.99849,349.39252 638.62986,329.0262 C 642.50247,307.30677 638.80138,284.76115 623.28743,268.17965 C 618.51744,263.08142 612.17419,259.72538 606.61756,255.49826 C 599.48265,252.77422 592.5777,249.34749 585.21282,247.32615 C 576.88013,245.03918 568.28935,243.73492 559.71987,242.62682 C 527.7237,238.48949 495.39162,240.96015 463.34073,237.83668 C 460.08349,236.73196 456.28098,236.638 453.56902,234.52255 C 452.1477,233.41386 450.96934,230.4261 452.34067,229.25614 C 460.94071,221.91895 471.30076,216.93034 480.99848,211.12093 C 484.34921,209.11367 487.93261,207.52053 491.45207,205.82648 C 502.09597,200.70319 512.99738,196.12475 523.53838,190.78213 C 529.76177,187.73178 536.02123,184.75395 542.20852,181.63106 C 548.25379,178.57985 554.13306,175.20046 560.2335,172.26112 C 562.37246,171.23051 552.18484,177.28896 554.10857,175.89733 C 557.71559,173.28801 561.67442,171.19138 565.29437,168.60007 C 570.95238,164.54986 571.53875,163.66773 575.55159,159.48926 C 575.07705,158.60913 575.02899,157.28238 574.12792,156.84888 C 569.13979,154.44911 558.49062,155.26053 554.25846,155.51252 C 548.48794,155.85611 542.7348,156.46352 536.9883,157.09157 C 515.88724,159.39774 512.99664,160.15373 491.1995,163.63503 C 476.45869,166.80272 471.27792,167.87275 456.52973,172.12459 C 447.53739,174.71705 433.69149,179.69829 427.95292,182.15039 C 423.74063,183.95031 410.69061,190.31889 414.58076,187.90024 C 426.15418,180.70462 439.5534,172.88146 428.74842,179.85655 L 401.02788,191.33878 z"
       sodipodi:nodetypes="cscssscsssssccscsscsscsccccsscsscsscsssscsssscssscssscc" />
    <text
       xml:space="preserve"
       style="font-size:27.47451591px;font-style:normal;font-variant:normal;font-weight:normal;font-stretch:normal;fill:#000000;fill-opacity:1;stroke:none;stroke-width:1px;stroke-linecap:butt;stroke-linejoin:miter;stroke-opacity:1;font-family:Sans;-inkscape-font-specification:Sans"
       x="185.85483"
       y="578.1756"
       id="text2513"><tspan
         sodipodi:role="line"
         id="tspan2515"
         x="185.85483"
         y="578.1756"
         style="font-weight:bold;fill:#b3b3b3;-inkscape-font-specification:Sans Bold">Site Graphics Generated</tspan></text>
  </g>
</svg>
