<?xml version="1.0" encoding="UTF-8" standalone="no"?>
<?xml-stylesheet href="../base.css"  type="text/css" ?>
<!DOCTYPE svg PUBLIC "-//W3C//DTD SVG 1.1//EN" "http://www.w3.org/Graphics/SVG/1.1/DTD/svg11.dtd">
<svg width="150" height="70" view=" 0 0 150 70"  version="1.1" xmlns="http://www.w3.org/2000/svg" xmlns:xlink="http://www.w3.org/1999/xlink">

<defs>
   	<mask id="maskbottom">
	<rect x="0" y="0" width="150" height="80" style="fill: url(#whitetoblack);" />
	</mask>
   	<mask id="masktop">
	<rect x="0" y="0" width="150" height="90" style="fill: url(#blacktowhite);" />
	</mask>
 	 <mask id="maskround">
        <rect x="0" y="0" rx="0" ry="0"  width="150" height="70" style="fill: white" />
        <rect x="10" y="35" rx="20" ry="20"  width="150" height="100" style="fill: black" />
        </mask>


<mask id="maskouter">
   <rect x="0" y="0" rx="0" ry="0" width="150" height="70" style="fill: black;"/>
   <rect x="5" y="5" rx="10" ry="10" width="140" height="60" style="fill: white;"/>
</mask>

   <filter id="blurbasic" filterRes="300">
     <feGaussianBlur in="SourceGraphic" stdDeviation="2"/>
   </filter>

   <filter id="blurshadow" filterRes="300">
     <feGaussianBlur in="SourceGraphic" stdDeviation="2"/>
   </filter>

   <linearGradient id="whitetoblack" x1="0%" y1="0%" x2="0%" y2="100%">
     <stop offset="0%"   style="stop-color:black;opacity:1"  />
     <stop offset="100%" style="stop-color:white;opacity:1" />
   </linearGradient>

  <linearGradient id="blacktowhite" x1="0%" y1="0%" x2="0%" y2="100%">
     <stop offset="0%" style="stop-color:white;opacity:1" />
     <stop offset="100%"   style="stop-color:black;opacity:1"  />
   </linearGradient>

  <linearGradient id="oddshades" x1="0%" y1="0%" x2="0%" y2="100%">
     <stop offset="0%"     class="colorwhite" />
     <stop offset="50%"   class="colorgray-to"  />
     <stop offset="100%"   class="colorgray-to"  />
   </linearGradient>


</defs>
   <rect x="5" y="5" rx="10" ry="10" width="140" height="60" style="fill: black;opacity:.6" filter="url(#blurshadow)" />
  <g mask="url(#maskouter)"> 
   <rect x="0" y="0"  width="150" height="70" style="fill:url(#oddshades)" />
   <rect x="6" y="6" rx="10" ry="10" width="137" height="32" style="fill: white;opacity:.7" mask="url(#masktop)"  />
  </g>
</svg>
